PathFileType	4	(X/Y/Z)	 s06c0103.trc
DataRate	CameraRate	NumFrames	NumMarkers	Units	OrigDataRate	OrigDataStartFrame	OrigNumFrames
200	200	4	48	mm	200	1	2000
Frame#	Time	racr			lacr			c7			jug			rlel			rdr			llel			ldr			s2			lic			ric			lasi			rasi			rpsi			lpsi			rgt			lgt			rth1			rth2			rth3			rth4			rlfc			rmfc			rsh1			rsh2			rsh3			rsh4			rlmal			rcal			rtoe			rmt5			lth1			lth2			lth4			lth3			llfc			lmfc			llmal			lcal			lmt5			lsh1			lsh2			lsh3			lsh4			ltoe			SBIKE			LBIKE			RBIKE			
		X1	Y1	Z1	X2	Y2	Z2	X3	Y3	Z3	X4	Y4	Z4	X5	Y5	Z5	X6	Y6	Z6	X7	Y7	Z7	X8	Y8	Z8	X9	Y9	Z9	X10	Y10	Z10	X11	Y11	Z11	X12	Y12	Z12	X13	Y13	Z13	X14	Y14	Z14	X15	Y15	Z15	X16	Y16	Z16	X17	Y17	Z17	X18	Y18	Z18	X19	Y19	Z19	X20	Y20	Z20	X21	Y21	Z21	X22	Y22	Z22	X23	Y23	Z23	X24	Y24	Z24	X25	Y25	Z25	X26	Y26	Z26	X27	Y27	Z27	X28	Y28	Z28	X29	Y29	Z29	X30	Y30	Z30	X31	Y31	Z31	X32	Y32	Z32	X33	Y33	Z33	X34	Y34	Z34	X35	Y35	Z35	X36	Y36	Z36	X37	Y37	Z37	X38	Y38	Z38	X39	Y39	Z39	X40	Y40	Z40	X41	Y41	Z41	X42	Y42	Z42	X43	Y43	Z43	X44	Y44	Z44	X45	Y45	Z45	X46	Y46	Z46	X47	Y47	Z47	X48	Y48	Z48	
1	0.0050	446.144184	1332.450655	-48.466425	461.826402	1345.273626	-381.719853	420.977903	1440.495427	-211.802315	469.347596	1288.923341	-207.788321	528.545886	1085.527812	30.342528	719.386139	922.806831	-33.132184	519.484132	1084.478655	-459.245449	713.193132	927.021653	-403.303889	-43.455836	1147.636345	-207.060642	138.923660	1095.920658	-368.862871	116.857009	1102.641572	-33.419076	141.784363	1031.360486	-339.844903	131.190308	1047.199731	-65.168989	-7.754937	1179.353771	-171.470196	-5.958788	1179.095179	-232.252426	65.876423	1052.013261	-0.151746	85.743721	1035.797590	-400.194715	167.339800	984.536429	-2.602871	255.265167	960.593698	-7.403282	316.024675	898.660569	-11.967895	270.046046	990.970670	-24.572520	382.879526	816.497581	-34.111673	381.989199	792.920579	-145.212125	352.933245	697.820553	-10.774283	349.791930	612.585154	-32.831449	307.495418	536.740393	-36.711893	372.069840	611.177606	-65.197647	278.599205	457.625652	-42.491621	213.779219	439.278610	-93.873032	482.661210	377.600518	-96.678883	385.018446	371.692226	-26.006180	131.745045	925.955129	-411.561946	200.538920	874.250637	-405.113590	228.680195	895.059240	-392.485461	234.975916	790.977037	-401.348433	262.490324	683.051799	-376.874097	261.678924	663.389888	-261.435458	14.351178	407.004632	-375.895230	-58.717699	422.175682	-328.806271	77.154903	278.370448	-396.665954	197.092325	600.715033	-400.789904	157.272716	524.946558	-383.672111	83.203912	475.355884	-385.309224	176.638796	512.060018	-352.351756	151.180098	235.604959	-337.555961	-204.974558	867.405522	-202.477166	-52.020419	84.021562	-410.006985	-50.128411	79.786167	-12.603194	
2	0.0100	446.171269	1332.485533	-48.501297	461.836405	1345.254079	-381.767843	420.975270	1440.500011	-211.854380	469.384188	1288.908199	-207.808468	528.580185	1085.543960	30.313084	719.398134	922.816176	-33.140376	519.461811	1084.444853	-459.250447	713.189331	927.007620	-403.310315	-43.456087	1147.659086	-207.080841	138.932765	1095.896720	-368.902297	116.863637	1102.648625	-33.443851	141.796858	1031.321878	-339.853107	131.185299	1047.199277	-65.185905	-7.738671	1179.356774	-171.492567	-5.948986	1179.096623	-232.288874	65.896756	1052.041664	-0.164314	85.740540	1035.763590	-400.209004	167.355902	984.556204	-2.627616	255.281212	960.639634	-7.394071	316.064176	898.700875	-12.010151	270.056077	990.986470	-24.576479	382.924058	816.554938	-34.131644	382.003713	792.950757	-145.229695	352.965071	697.857426	-10.782214	349.793972	612.643906	-32.847143	307.494407	536.794185	-36.707215	372.071498	611.218255	-65.206865	278.587807	457.668214	-42.479053	213.762559	439.357631	-93.875629	482.640670	377.653654	-96.682473	385.030621	371.752773	-26.014787	131.712273	925.904302	-411.593150	200.507309	874.210497	-405.142028	228.641413	895.020543	-392.515656	234.933322	790.921973	-401.344001	262.426426	683.000111	-376.913956	261.637047	663.353268	-261.460315	14.319498	406.922015	-375.890389	-58.749079	422.106771	-328.808664	77.154556	278.335722	-396.666853	197.049171	600.668272	-400.804805	157.234163	524.868249	-383.664755	83.153982	475.304876	-385.332780	176.602534	512.001751	-352.383393	151.194887	235.575148	-337.555257	-204.981275	867.407716	-202.484139	-52.021172	84.031668	-410.003048	-50.238198	80.065832	-12.399650	
3	0.0150	446.198123	1332.534487	-48.529388	461.861338	1345.222343	-381.811159	420.963135	1440.504213	-211.892844	469.407553	1288.908740	-207.842327	528.598059	1085.570116	30.301193	719.394897	922.814971	-33.137510	519.427450	1084.422629	-459.240705	713.196485	927.009963	-403.310317	-43.445962	1147.651479	-207.113514	138.923475	1095.874320	-368.951160	116.862161	1102.650950	-33.445433	141.791086	1031.285155	-339.889264	131.195149	1047.207758	-65.193127	-7.750623	1179.362728	-171.506096	-5.950545	1179.099357	-232.326247	65.914519	1052.046481	-0.186212	85.724328	1035.722537	-400.214789	167.374202	984.580821	-2.642729	255.297445	960.670534	-7.426629	316.096705	898.714465	-12.006761	270.074061	991.005871	-24.615914	382.942508	816.594332	-34.148810	382.043121	793.002578	-145.243457	352.984534	697.913946	-10.780080	349.810689	612.669889	-32.867386	307.499008	536.849585	-36.703319	372.093094	611.272734	-65.220515	278.572962	457.735823	-42.488815	213.746031	439.411133	-93.868438	482.633074	377.712483	-96.679463	385.031782	371.787620	-26.023397	131.695966	925.874339	-411.605675	200.481885	874.165421	-405.155146	228.625043	894.982075	-392.547752	234.895869	790.873604	-401.353428	262.370796	682.955731	-376.947829	261.592635	663.324435	-261.505092	14.295645	406.858152	-375.897139	-58.766887	422.035676	-328.809652	77.153835	278.296644	-396.671803	197.009483	600.612810	-400.813459	157.190870	524.817135	-383.696285	83.140909	475.245072	-385.332376	176.577872	511.944421	-352.401039	151.207877	235.554776	-337.574172	-204.982616	867.410080	-202.472704	-52.015722	84.033430	-410.011939	-50.231081	80.043469	-12.418532	
4	0.0200	446.801381	1332.574944	-48.458250	461.870538	1345.234689	-381.857587	420.953588	1440.512420	-211.951813	469.432750	1288.901981	-207.857470	528.620930	1085.587369	30.279420	719.401770	922.827182	-33.131903	519.504007	1084.492670	-459.399081	713.186637	927.004674	-403.300877	-43.395514	1147.974922	-207.249985	138.936693	1095.833230	-368.972901	116.922531	1103.242872	-33.159963	141.804999	1031.256077	-339.908619	131.831452	1047.999425	-64.990513	-7.911120	1179.353200	-171.642825	-5.946999	1179.097647	-232.339897	65.932765	1051.962276	-0.179923	85.717708	1035.723584	-400.225593	167.382011	984.598285	-2.664189	255.460478	960.904374	-7.388607	316.047010	898.653654	-11.907750	270.232014	990.990288	-24.581894	382.977646	816.643720	-34.164416	382.066543	793.045173	-145.254829	353.006680	697.978271	-10.800030	349.677244	612.640741	-32.947661	307.503821	536.904199	-36.725166	372.301621	611.162419	-65.240450	278.583904	457.709015	-42.433323	213.734724	439.473014	-93.867568	482.612328	377.777005	-96.684159	385.010093	371.864481	-26.021020	131.678170	925.829509	-411.632820	200.698409	873.384741	-404.847805	228.565372	894.862951	-392.387142	234.862430	790.821164	-401.368656	262.418265	682.782525	-377.037074	261.552033	663.288045	-261.517886	14.269198	406.783902	-375.903093	-58.790671	421.966699	-328.811449	77.178587	278.245930	-396.674543	196.970651	600.568869	-400.845760	157.070491	524.646857	-383.692852	82.931772	475.460253	-385.819666	176.526679	511.900599	-352.431211	151.225257	235.515485	-337.554683	-205.037975	867.373992	-202.610526	-52.023374	84.037874	-410.009722	-50.217685	80.039136	-12.426448	
